<svg width="400" height="221" viewBox="0 0 400 221" fill="none" xmlns="http://www.w3.org/2000/svg">
  <!-- Logo asli -->
  <g transform="translate(0, 0)">
    <path d="M53.897 148.068C50.897 131.068 49.397 125.068 51.897 116.568C54.397 102.568 88.3969 73.568 101.897 62.568C125.397 44.068 183.397 0.567978 162.397 18.068C174.397 58.568 72.897 105.068 53.897 148.068ZM53.897 148.068L60.3969 188.568L63.897 207.068M138.897 67.068C152.897 118.068 54.397 146.568 59.397 182.568" stroke="white" stroke-width="27" stroke-linecap="round"/>
    <path d="M37.0592 136.593C-82.603 40.568 312.559 84.0927 108.059 143.593" stroke="white" stroke-width="27" stroke-linecap="round"/>
    <path d="M53.897 148.068C50.897 131.068 49.397 125.068 51.897 116.568C54.397 102.568 88.3969 73.568 101.897 62.568C125.397 44.068 183.397 0.567978 162.397 18.068C174.397 58.568 72.897 105.068 53.897 148.068ZM53.897 148.068L60.3969 188.568L63.897 207.068M138.897 67.068C152.897 118.068 54.397 146.568 59.397 182.568" stroke="#00A3A8" stroke-width="8" stroke-linecap="round"/>
    <path d="M37.0592 136.593C-82.603 40.568 312.559 84.0927 108.059 143.593" stroke="#00A3A8" stroke-width="8" stroke-linecap="round"/>
  </g>

  <!-- Tulisan "HaloSurat" -->
  <text x="210" y="130" font-family="Segoe UI, sans-serif" font-size="48" fill="#00A3A8" font-weight="bold">
    HaloSurat
  </text>
</svg>
